<svg width="97" height="57" xmlns="http://www.w3.org/2000/svg" xmlns:xlink="http://www.w3.org/1999/xlink" xml:space="preserve" overflow="hidden"><defs><clipPath id="clip0"><rect x="902" y="502" width="97" height="57"/></clipPath></defs><g clip-path="url(#clip0)" transform="translate(-902 -502)"><path d="M73.7675 50.127 71.7271 49.0936 71.7271 43.0438 73.7675 44.3547ZM73.7675 57.336 71.7271 56.6463 71.7271 50.5974 73.7675 51.5635ZM73.7675 64.5448 71.7271 64.1998 71.7271 58.15 73.7675 58.7714ZM73.7675 71.7527 71.7271 71.7527 71.7271 65.7027 73.7675 65.9802ZM70.6269 48.5363 68.5866 47.502 68.5866 41.028 70.6269 42.3388ZM70.6269 56.276 68.5866 55.5865 68.5866 49.1115 70.6269 50.0768ZM70.6269 64.0148 68.5866 63.6692 68.5866 57.1942 70.6269 57.8164ZM70.6269 71.7527 68.5866 71.7527 68.5866 65.2787 70.6269 65.5552ZM67.4745 38.1015 67.4745 74.6781 74.7285 74.6781 74.7285 42.227 67.4745 38.1015" fill="#D4E2E5" transform="matrix(1.70175 0 0 1 871.439 484.063)"/><path d="M73.7675 50.127 73.8667 49.9326 71.9456 48.9597 71.9456 43.4441 73.549 44.474 73.549 50.127 73.7675 50.127 73.8667 49.9326 73.7675 50.127 73.986 50.127 73.986 44.3547C73.986 44.2804 73.9486 44.2112 73.8861 44.1712L71.8449 42.8603C71.7774 42.8166 71.692 42.8142 71.6221 42.8527 71.5513 42.8909 71.5078 42.9634 71.5078 43.0438L71.5078 49.0936C71.5078 49.1756 71.5548 49.2516 71.628 49.2883L73.6694 50.3225C73.7369 50.3566 73.8179 50.3534 73.8828 50.314 73.9468 50.2738 73.986 50.203 73.986 50.127ZM73.7675 57.336 73.8376 57.1293 71.9447 56.4892 71.9447 50.9421 73.549 51.7016 73.549 57.336 73.7675 57.336 73.8376 57.1293 73.7675 57.336 73.986 57.336 73.986 51.5635C73.986 51.4789 73.9375 51.402 73.8614 51.3653L71.82 50.3994C71.7518 50.3678 71.6732 50.3719 71.6094 50.413 71.546 50.4532 71.5087 50.5222 71.5087 50.5974L71.5087 56.6463C71.5087 56.7402 71.5674 56.823 71.6561 56.8536L73.6976 57.5433C73.7642 57.5654 73.8385 57.5545 73.8955 57.5143 73.9519 57.4723 73.986 57.4068 73.986 57.336ZM73.7675 64.5448 73.8042 64.3287 71.9456 64.0156 71.9456 58.4454 73.549 58.9326 73.549 64.5448 73.7675 64.5448 73.8042 64.3287 73.7675 64.5448 73.986 64.5448 73.986 58.7714C73.986 58.6748 73.9237 58.5905 73.8315 58.5623L71.7903 57.9418C71.7236 57.9213 71.652 57.9333 71.5965 57.9751 71.541 58.0161 71.5078 58.081 71.5078 58.15L71.5078 64.1998C71.5078 64.3067 71.5845 64.398 71.6904 64.415L73.7317 64.7598C73.7948 64.77 73.8597 64.7521 73.9093 64.7111 73.958 64.6702 73.986 64.6088 73.986 64.5448ZM73.7675 71.7527 73.7675 71.5342 71.9447 71.5342 71.9447 65.9537 73.549 66.1705 73.549 71.7527 73.7675 71.7527 73.7675 71.5342 73.7675 71.7527 73.986 71.7527 73.986 65.9802C73.986 65.8701 73.9058 65.7779 73.7974 65.7635L71.756 65.4869C71.6928 65.4783 71.6306 65.4971 71.5827 65.5389 71.5351 65.5799 71.5078 65.6396 71.5078 65.7027L71.5078 71.7527C71.5078 71.8099 71.5316 71.8661 71.5727 71.9072 71.6127 71.948 71.669 71.9712 71.7271 71.9712L73.7675 71.9712C73.8265 71.9712 73.8811 71.948 73.9219 71.9072 73.9639 71.8661 73.986 71.8106 73.986 71.7527ZM70.6269 48.5363 70.7261 48.3419 68.8042 47.3679 68.8042 41.4274 70.4084 42.4583 70.4084 48.5363 70.6269 48.5363 70.7261 48.3419 70.6269 48.5363 70.8454 48.5363 70.8454 42.3388C70.8454 42.2645 70.808 42.1955 70.7455 42.1544L68.7043 40.8436C68.6368 40.801 68.5514 40.7975 68.4815 40.8359 68.4107 40.8744 68.3681 40.9478 68.3681 41.028L68.3681 47.502C68.3681 47.584 68.4142 47.6598 68.4874 47.6965L70.5288 48.7318C70.5963 48.7659 70.6774 48.7624 70.7414 48.7233 70.8063 48.6831 70.8454 48.6123 70.8454 48.5363ZM70.6269 56.276 70.697 56.0686 68.8042 55.4294 68.8042 49.4563 70.4084 50.2151 70.4084 56.276 70.6269 56.276 70.697 56.0686 70.6269 56.276 70.8454 56.276 70.8454 50.0768C70.8454 49.9922 70.7969 49.9155 70.7209 49.8797L68.6794 48.9145C68.6121 48.8819 68.532 48.8872 68.4688 48.9271 68.4063 48.9665 68.3672 49.0373 68.3672 49.1115L68.3672 55.5865C68.3672 55.6793 68.4269 55.763 68.5156 55.7929L70.557 56.4824C70.6236 56.5047 70.6979 56.4936 70.7549 56.4527 70.8113 56.4125 70.8454 56.3459 70.8454 56.276ZM70.6269 64.0148 70.6636 63.7989 68.8042 63.4839 68.8042 57.4896 70.4084 57.9785 70.4084 64.0148 70.6269 64.0148 70.6636 63.7989 70.6269 64.0148 70.8454 64.0148 70.8454 57.8164C70.8454 57.7199 70.7831 57.6355 70.6909 57.6074L68.6497 56.986C68.5831 56.9655 68.5114 56.9775 68.4559 57.0192 68.4004 57.0603 68.3672 57.1252 68.3672 57.1942L68.3672 63.6692C68.3672 63.7758 68.4439 63.8662 68.5499 63.8841L70.5911 64.2298C70.6542 64.24 70.7191 64.2221 70.7687 64.1813 70.8174 64.1393 70.8454 64.0779 70.8454 64.0148ZM70.6269 71.7527 70.6269 71.5342 68.8042 71.5342 68.8042 65.5288 70.4084 65.7464 70.4084 71.7527 70.6269 71.7527 70.6269 71.5342 70.6269 71.7527 70.8454 71.7527 70.8454 65.5552C70.8454 65.446 70.7652 65.3529 70.6568 65.3383L68.6154 65.0619C68.5523 65.0534 68.49 65.0731 68.4422 65.1139 68.3945 65.1557 68.3681 65.2155 68.3681 65.2787L68.3681 71.7527C68.3681 71.8106 68.3902 71.8661 68.4321 71.9072 68.473 71.948 68.5276 71.9712 68.5866 71.9712L70.6269 71.9712C70.6859 71.9712 70.7405 71.948 70.7814 71.9072 70.8233 71.8661 70.8454 71.8106 70.8454 71.7527ZM67.4745 38.1015 67.2561 38.1015 67.2561 74.6781C67.2561 74.7362 67.279 74.7926 67.3201 74.8325 67.3609 74.8736 67.4164 74.8966 67.4745 74.8966L74.7285 74.8966C74.7864 74.8966 74.8411 74.8745 74.883 74.8325 74.9239 74.7917 74.947 74.7371 74.947 74.6781L74.947 42.227C74.947 42.1485 74.9051 42.076 74.836 42.0367L67.5829 37.9121C67.5145 37.8736 67.4317 37.8736 67.3644 37.913 67.2969 37.9523 67.2561 38.024 67.2561 38.1015L67.4745 38.1015 67.3662 38.292 74.5101 42.3541 74.5101 74.4596 67.693 74.4596 67.693 38.1015 67.4745 38.1015 67.3662 38.292 67.4745 38.1015" fill="#D4E2E5" transform="matrix(1.70175 0 0 1 871.439 484.063)"/><path d="M65.6566 43.3783 60.6983 46.4813 60.6983 44.131 65.6566 40.742ZM65.6566 47.4721 60.6983 50.1323 60.6983 47.7819 65.6566 44.8369ZM65.6566 51.5668 60.6983 53.7832 60.6983 51.432 65.6566 48.9306ZM65.6566 55.6614 60.6983 57.435 60.6983 55.0838 65.6566 53.0253ZM65.6566 59.7554 60.6983 61.0859 60.6983 58.7356 65.6566 57.1199ZM65.6566 63.85 60.6983 64.7366 60.6983 62.3865 65.6566 61.2139ZM65.6566 67.9447 60.6983 68.3876 60.6983 66.0374 65.6566 65.3086ZM65.6566 72.0385 60.6983 72.0385 60.6983 69.6883 65.6566 69.4032ZM59.3951 42.227 59.3951 74.6781 66.9589 74.6781 66.9589 38.1015 59.3951 42.227" fill="#D4E2E5" transform="matrix(1.70175 0 0 1 871.439 484.063)"/><path d="M65.6566 43.3783 65.5406 43.1922 60.9168 46.087 60.9168 44.2461 65.4381 41.156 65.4381 43.3783 65.6566 43.3783 65.5406 43.1922 65.6566 43.3783 65.8751 43.3783 65.8751 40.742C65.8751 40.6609 65.8299 40.5867 65.7582 40.5493 65.6874 40.5109 65.6005 40.5159 65.5338 40.562L60.5756 43.951C60.5148 43.9909 60.4799 44.0584 60.4799 44.131L60.4799 46.4813C60.4799 46.5606 60.5225 46.634 60.5926 46.6725 60.6616 46.7109 60.7471 46.7083 60.8143 46.6666L65.7728 43.5627C65.836 43.5234 65.8751 43.4535 65.8751 43.3783ZM65.6566 47.4721 65.5535 47.2801 60.9168 49.767 60.9168 47.9056 65.4381 45.2199 65.4381 47.4721 65.6566 47.4721 65.5535 47.2801 65.6566 47.4721 65.8751 47.4721 65.8751 44.8369C65.8751 44.7573 65.8334 44.6857 65.7652 44.6464 65.6959 44.6073 65.6123 44.6081 65.545 44.6481L60.5865 47.5942C60.5201 47.6333 60.4799 47.7043 60.4799 47.7819L60.4799 50.1323C60.4799 50.2089 60.5209 50.2808 60.5856 50.3199 60.6522 50.3592 60.7342 50.361 60.8017 50.3252L65.76 47.665C65.8307 47.6266 65.8751 47.5532 65.8751 47.4721ZM65.6566 51.5668 65.567 51.3671 60.9168 53.4461 60.9168 51.5668 65.4381 49.2857 65.4381 51.5668 65.6566 51.5668 65.567 51.3671 65.6566 51.5668 65.8751 51.5668 65.8751 48.9306C65.8751 48.8546 65.836 48.7847 65.7711 48.7445 65.7062 48.7045 65.626 48.701 65.5585 48.7351L60.6002 51.2373C60.526 51.274 60.4799 51.35 60.4799 51.432L60.4799 53.7832C60.4799 53.8566 60.5174 53.9265 60.5797 53.9667 60.6411 54.0067 60.7197 54.0128 60.787 53.9829L65.7455 51.7664C65.8248 51.7306 65.8751 51.6531 65.8751 51.5668ZM65.6566 55.6614 65.5834 55.4558 60.9168 57.1243 60.9168 55.2297 65.4381 53.3521 65.4381 55.6614 65.6566 55.6614 65.5834 55.4558 65.6566 55.6614 65.8751 55.6614 65.8751 53.0253C65.8751 52.9519 65.8384 52.8844 65.7779 52.8435 65.7173 52.8027 65.6404 52.7957 65.5732 52.823L60.6147 54.8815C60.5327 54.9155 60.4799 54.9951 60.4799 55.0838L60.4799 57.435C60.4799 57.5058 60.5148 57.5724 60.5729 57.6133 60.6302 57.6543 60.7051 57.6637 60.7717 57.6397L65.73 55.8672C65.8172 55.8355 65.8751 55.7536 65.8751 55.6614ZM65.6566 59.7554 65.6005 59.5446 60.9168 60.8008 60.9168 58.8933 65.4381 57.4203 65.4381 59.7554 65.6566 59.7554 65.6005 59.5446 65.6566 59.7554 65.8751 59.7554 65.8751 57.1199C65.8751 57.05 65.8419 56.9843 65.7846 56.9434 65.7285 56.9015 65.656 56.8903 65.5893 56.9117L60.631 58.5274C60.5404 58.5562 60.4799 58.6407 60.4799 58.7356L60.4799 61.0859C60.4799 61.1532 60.5115 61.2181 60.5653 61.2592 60.619 61.3009 60.6889 61.3144 60.7547 61.2965L65.713 59.9662C65.8087 59.9404 65.8751 59.8544 65.8751 59.7554ZM65.6566 63.85 65.6184 63.6351 60.9168 64.4747 60.9168 62.5589 65.4381 61.4894 65.4381 63.85 65.6566 63.85 65.6184 63.6351 65.6566 63.85 65.8751 63.85 65.8751 61.2139C65.8751 61.1464 65.8454 61.0842 65.7925 61.0422 65.7394 61.0005 65.6721 60.9861 65.6064 61.0014L60.6481 62.173C60.5498 62.1971 60.4799 62.2849 60.4799 62.3865L60.4799 64.7366C60.4799 64.8006 60.508 64.8622 60.5585 64.904 60.6079 64.9459 60.6728 64.963 60.7368 64.9518L65.6951 64.065C65.7993 64.0462 65.8751 63.9558 65.8751 63.85ZM65.6566 67.9447 65.6372 67.7271 60.9168 68.1488 60.9168 66.2251 65.4381 65.5611 65.4381 67.9447 65.6566 67.9447 65.6372 67.7271 65.6566 67.9447 65.8751 67.9447 65.8751 65.3086C65.8751 65.2454 65.8471 65.1847 65.7993 65.143 65.7514 65.1019 65.6874 65.0831 65.6252 65.0925L60.6669 65.8205C60.5592 65.8369 60.4799 65.929 60.4799 66.0374L60.4799 68.3876C60.4799 68.4492 60.5054 68.507 60.5506 68.549 60.5959 68.5907 60.6566 68.6104 60.718 68.6054L65.6763 68.1623C65.789 68.152 65.8751 68.0583 65.8751 67.9447ZM65.6566 72.0385 65.6566 71.82 60.9168 71.82 60.9168 69.8939 65.4381 69.6344 65.4381 72.0385 65.6566 72.0385 65.6566 71.82 65.6566 72.0385 65.8751 72.0385 65.8751 69.4032C65.8751 69.3434 65.8504 69.2855 65.8069 69.2444 65.7635 69.2035 65.7036 69.1813 65.6439 69.1848L60.6857 69.4699C60.5694 69.4766 60.4799 69.5712 60.4799 69.6883L60.4799 72.0385C60.4799 72.0957 60.503 72.1521 60.5439 72.1929 60.5849 72.234 60.6402 72.257 60.6983 72.257L65.6566 72.257C65.7147 72.257 65.7702 72.234 65.8111 72.1929 65.8521 72.1521 65.8751 72.0966 65.8751 72.0385ZM59.3951 42.227 59.1767 42.227 59.1767 74.6781C59.1767 74.7362 59.1998 74.7926 59.2407 74.8325 59.2817 74.8736 59.3381 74.8966 59.3951 74.8966L66.9589 74.8966C67.0171 74.8966 67.0734 74.8736 67.1134 74.8325 67.1545 74.7926 67.1774 74.7362 67.1774 74.6781L67.1774 38.1015C67.1774 38.0248 67.1374 37.954 67.0708 37.9138 67.0042 37.8745 66.9222 37.873 66.8549 37.9104L59.2903 42.0349C59.2201 42.0734 59.1767 42.1468 59.1767 42.227L59.3951 42.227 59.5002 42.419 66.7405 38.4703 66.7405 74.4596 59.6136 74.4596 59.6136 42.227 59.3951 42.227 59.5002 42.419 59.3951 42.227" fill="#D4E2E5" transform="matrix(1.70175 0 0 1 871.439 484.063)"/><path d="M58.0015 39.1795 56.4713 38.0633 56.4713 34.6487 58.0015 35.8768ZM58.0015 43.3082 56.4713 42.3312 56.4713 38.9166 58.0015 40.0046ZM58.0015 47.4354 56.4713 46.5982 56.4713 43.1837 58.0015 44.1336ZM58.0015 51.5635 56.4713 50.8652 56.4713 47.4516 58.0015 48.2615ZM58.0015 55.6913 56.4713 55.1331 56.4713 51.7195 58.0015 52.3895ZM58.0015 59.8203 56.4713 59.4021 56.4713 55.9867 58.0015 56.5174ZM58.0015 63.9481 56.4713 63.6692 56.4713 60.2546 58.0015 60.6455ZM58.0015 68.0762 56.4713 67.9362 56.4713 64.5216 58.0015 64.7733ZM58.0015 72.2032 56.4713 72.2032 56.4713 68.7895 58.0015 68.9023ZM56.0182 37.733 54.4871 36.6168 54.4871 33.0578 56.0182 34.2861ZM56.0182 42.0419 54.4871 41.0647 54.4871 37.506 56.0182 38.594ZM56.0182 46.3507 54.4871 45.5135 54.4871 41.9539 56.0182 42.9038ZM56.0182 50.6596 54.4871 49.9616 54.4871 46.4029 56.0182 47.2128ZM56.0182 54.9686 54.4871 54.4104 54.4871 50.8517 56.0182 51.5215ZM56.0182 59.2774 54.4871 58.8583 54.4871 55.2987 56.0182 55.8305ZM56.0182 63.5863 54.4871 63.3074 54.4871 59.7484 56.0182 60.1395ZM56.0182 67.8953 54.4871 67.7553 54.4871 64.1965 56.0182 64.4474ZM56.0182 72.2032 54.4871 72.2032 54.4871 68.6453 56.0182 68.7572ZM54.0349 36.2864 52.5047 35.17 52.5047 31.4654 54.0349 32.6943ZM54.0349 40.7763 52.5047 39.7982 52.5047 36.0953 54.0349 37.1833ZM54.0349 45.2653 52.5047 44.4279 52.5047 40.7241 54.0349 41.6731ZM54.0349 49.7549 52.5047 49.0578 52.5047 45.354 54.0349 46.1639ZM54.0349 54.2448 52.5047 53.6866 52.5047 49.9828 54.0349 50.6538ZM54.0349 58.7356 52.5047 58.3165 52.5047 54.6127 54.0349 55.1425ZM54.0349 63.2246 52.5047 62.9453 52.5047 59.2415 54.0349 59.6324ZM54.0349 67.7142 52.5047 67.5753 52.5047 63.8715 54.0349 64.1214ZM54.0349 72.2032 52.5047 72.2032 52.5047 68.5003 54.0349 68.6121ZM58.8806 34.4327 51.6266 28.6612 51.6266 74.6781 58.8806 74.6781 58.8806 34.4327" fill="#D4E2E5" transform="matrix(1.70175 0 0 1 871.439 484.063)"/><path d="M58.0015 39.1795 58.1304 39.0027 56.6898 37.9514 56.6898 35.1045 57.783 35.9817 57.783 39.1795 58.0015 39.1795 58.1304 39.0027 58.0015 39.1795 58.22 39.1795 58.22 35.8768C58.22 35.8102 58.1902 35.7479 58.138 35.7062L56.6078 34.4779C56.5423 34.425 56.4527 34.4148 56.3767 34.4515 56.3007 34.4882 56.2522 34.5642 56.2522 34.6487L56.2522 38.0633C56.2522 38.1323 56.2862 38.1981 56.3426 38.2389L57.8728 39.3562C57.9392 39.4038 58.0273 39.4117 58.1007 39.3741 58.1739 39.3374 58.22 39.2614 58.22 39.1795ZM58.0015 43.3082 58.1192 43.124 56.6891 42.2117 56.6891 39.3398 57.783 40.1174 57.783 43.3082 58.0015 43.3082 58.1192 43.124 58.0015 43.3082 58.22 43.3082 58.22 40.0046C58.22 39.9339 58.1859 39.8672 58.1278 39.8264L56.5978 38.7382C56.5312 38.6914 56.4433 38.6853 56.3708 38.722 56.2983 38.7596 56.2528 38.8347 56.2528 38.9166L56.2528 42.3312C56.2528 42.4055 56.2904 42.4754 56.3535 42.5156L57.8837 43.4917C57.9512 43.5354 58.0367 43.5378 58.1066 43.4994 58.1765 43.4611 58.22 43.3877 58.22 43.3082ZM58.0015 47.4354 58.1066 47.2434 56.6891 46.4684 56.6891 43.5763 57.783 44.2546 57.783 47.4354 58.0015 47.4354 58.1066 47.2434 58.0015 47.4354 58.22 47.4354 58.22 44.1336C58.22 44.0567 58.1817 43.9877 58.1168 43.9475L56.5858 42.9984C56.5183 42.9567 56.4339 42.9541 56.3647 42.9934 56.2956 43.0318 56.2522 43.1044 56.2522 43.1837L56.2522 46.5982C56.2522 46.6784 56.2956 46.7509 56.3664 46.7894L57.8966 47.6266C57.9639 47.6641 58.0461 47.6624 58.1125 47.6231 58.1791 47.584 58.22 47.5132 58.22 47.4354ZM58.0015 51.5635 58.0919 51.3644 56.6891 50.7254 56.6891 47.8142 57.783 48.393 57.783 51.5635 58.0015 51.5635 58.0919 51.3644 58.0015 51.5635 58.22 51.5635 58.22 48.2615C58.22 48.1804 58.1747 48.1061 58.104 48.0688L56.5729 47.2587C56.5056 47.2228 56.4237 47.2246 56.3579 47.2648 56.2921 47.3041 56.2522 47.3749 56.2522 47.4516L56.2522 50.8652C56.2522 50.9515 56.3024 51.0291 56.38 51.064L57.911 51.7623C57.9785 51.7929 58.057 51.787 58.1192 51.7468 58.1824 51.7068 58.22 51.6375 58.22 51.5635ZM58.0015 55.6913 58.0766 55.4858 56.6891 54.9804 56.6891 52.0533 57.783 52.532 57.783 55.6913 58.0015 55.6913 58.0766 55.4858 58.0015 55.6913 58.22 55.6913 58.22 52.3895C58.22 52.3024 58.1688 52.2239 58.0895 52.1898L56.5585 51.5189C56.491 51.4892 56.4134 51.496 56.3511 51.5362 56.2895 51.5762 56.2528 51.6454 56.2528 51.7195L56.2528 55.1331C56.2528 55.2253 56.3101 55.3073 56.3964 55.3389L57.9265 55.8971C57.9938 55.921 58.0681 55.9116 58.1271 55.8705 58.185 55.8296 58.22 55.763 58.22 55.6913ZM58.0015 59.8203 58.0587 59.6095 56.6891 59.2348 56.6891 56.293 57.783 56.6727 57.783 59.8203 58.0015 59.8203 58.0587 59.6095 58.0015 59.8203 58.22 59.8203 58.22 56.5174C58.22 56.4245 58.1612 56.3417 58.0731 56.3109L56.5423 55.78C56.4757 55.7562 56.4023 55.7674 56.3441 55.8082 56.2862 55.8493 56.2528 55.9151 56.2528 55.9867L56.2528 59.4021C56.2528 59.5002 56.3186 59.5863 56.4134 59.6119L57.9436 60.0309C58.0093 60.0488 58.0801 60.0353 58.1339 59.9942 58.1885 59.9525 58.22 59.8876 58.22 59.8203ZM58.0015 63.9481 58.0408 63.7332 56.6898 63.4865 56.6898 60.5354 57.783 60.8143 57.783 63.9481 58.0015 63.9481 58.0408 63.7332 58.0015 63.9481 58.22 63.9481 58.22 60.6455C58.22 60.5456 58.1518 60.4578 58.0552 60.4329L56.5253 60.0429C56.4604 60.0259 56.3894 60.0403 56.3365 60.0822 56.2836 60.1231 56.2522 60.1871 56.2522 60.2546L56.2522 63.6692C56.2522 63.774 56.328 63.8645 56.4322 63.8833L57.9624 64.1633C58.0264 64.1743 58.0919 64.1572 58.1415 64.1164 58.1911 64.0744 58.22 64.013 58.22 63.9481ZM58.0015 68.0762 58.0211 67.8586 56.6898 67.7365 56.6898 64.7794 57.783 64.9586 57.783 68.0762 58.0015 68.0762 58.0211 67.8586 58.0015 68.0762 58.22 68.0762 58.22 64.7733C58.22 64.6667 58.1424 64.5745 58.0367 64.5575L56.5065 64.3067C56.4433 64.2964 56.3784 64.3143 56.3297 64.3552 56.2801 64.3971 56.2522 64.4576 56.2522 64.5216L56.2522 67.9362C56.2522 68.0489 56.3382 68.1435 56.451 68.1538L57.982 68.2938C58.0434 68.2988 58.1031 68.2792 58.1483 68.2374 58.1944 68.1957 58.22 68.1376 58.22 68.0762ZM58.0015 72.2032 58.0015 71.9847 56.6891 71.9847 56.6891 69.0251 57.783 69.1046 57.783 72.2032 58.0015 72.2032 58.0015 71.9847 58.0015 72.2032 58.22 72.2032 58.22 68.9023C58.22 68.7871 58.1321 68.6923 58.0179 68.6838L56.4868 68.5719C56.4261 68.5678 56.3664 68.5881 56.3221 68.6301 56.2777 68.6709 56.2528 68.729 56.2528 68.7895L56.2528 72.2032C56.2528 72.2622 56.2751 72.3168 56.3162 72.3577 56.3579 72.3996 56.4125 72.4217 56.4713 72.4217L58.0015 72.4217C58.0596 72.4217 58.1151 72.3996 58.1559 72.3577 58.197 72.3168 58.22 72.2622 58.22 72.2032ZM56.0182 37.733 56.1471 37.5562 54.7056 36.5049 54.7056 33.5129 55.7997 34.3909 55.7997 37.733 56.0182 37.733 56.1471 37.5562 56.0182 37.733 56.2366 37.733 56.2366 34.2861C56.2366 34.2194 56.2069 34.1572 56.1556 34.1152L54.6245 32.8872C54.559 32.8343 54.4692 32.824 54.3934 32.8608 54.3174 32.8966 54.2686 32.9735 54.2686 33.0578L54.2686 36.6168C54.2686 36.6867 54.3021 36.7516 54.3591 36.7924L55.8901 37.9097C55.9559 37.9573 56.0437 37.965 56.1171 37.9276 56.1906 37.8909 56.2366 37.8149 56.2366 37.733ZM56.0182 42.0419 56.1359 41.8575 54.7056 40.9443 54.7056 37.9291 55.7997 38.7076 55.7997 42.0419 56.0182 42.0419 56.1359 41.8575 56.0182 42.0419 56.2366 42.0419 56.2366 38.594C56.2366 38.5232 56.2026 38.4574 56.1453 38.4166L54.6143 37.3275C54.5478 37.2807 54.4598 37.2746 54.3873 37.3113 54.3147 37.3489 54.2686 37.424 54.2686 37.506L54.2686 41.0647C54.2686 41.139 54.3071 41.2089 54.3702 41.2491L55.9013 42.2261C55.9688 42.2689 56.0531 42.2722 56.1241 42.2331 56.194 42.1946 56.2366 42.1221 56.2366 42.0419ZM56.0182 46.3507 56.1233 46.1586 54.7056 45.3837 54.7056 42.3465 55.7997 43.0251 55.7997 46.3507 56.0182 46.3507 56.1233 46.1586 56.0182 46.3507 56.2366 46.3507 56.2366 42.9038C56.2366 42.8278 56.1982 42.7579 56.1335 42.7177L54.6025 41.768C54.535 41.726 54.4504 41.7243 54.3814 41.7627 54.3123 41.802 54.2686 41.8746 54.2686 41.9539L54.2686 45.5135C54.2686 45.5937 54.3123 45.6662 54.3831 45.7047L55.9142 46.5418C55.9815 46.5794 56.0634 46.5777 56.13 46.5386 56.1967 46.4992 56.2366 46.4285 56.2366 46.3507ZM56.0182 50.6596 56.1095 50.4608 54.7056 49.8207 54.7056 46.7656 55.7997 47.3441 55.7997 50.6596 56.0182 50.6596 56.1095 50.4608 56.0182 50.6596 56.2366 50.6596 56.2366 47.2128C56.2366 47.1315 56.1923 47.0574 56.1206 47.0199L54.5896 46.21C54.5223 46.1742 54.4404 46.1757 54.3746 46.2159 54.3088 46.2552 54.2686 46.326 54.2686 46.4029L54.2686 49.9616C54.2686 50.0468 54.3191 50.1246 54.3967 50.1604L55.9277 50.8585C55.9961 50.8893 56.0737 50.8831 56.1368 50.8432 56.1991 50.803 56.2366 50.7339 56.2366 50.6596ZM56.0182 54.9686 56.0933 54.7628 54.7056 54.2568 54.7056 51.1853 55.7997 51.6642 55.7997 54.9686 56.0182 54.9686 56.0933 54.7628 56.0182 54.9686 56.2366 54.9686 56.2366 51.5215C56.2366 51.4346 56.1864 51.3559 56.1062 51.321L54.5751 50.6511C54.5076 50.6212 54.4301 50.628 54.3678 50.6682 54.3062 50.709 54.2686 50.7774 54.2686 50.8517L54.2686 54.4104C54.2686 54.5017 54.3267 54.5837 54.413 54.6151L55.9439 55.1733C56.0105 55.198 56.0857 55.1878 56.1436 55.1469 56.2026 55.1058 56.2366 55.0394 56.2366 54.9686ZM56.0182 59.2774 56.0763 59.0666 54.7056 58.6921 54.7056 55.6061 55.7997 55.9858 55.7997 59.2774 56.0182 59.2774 56.0763 59.0666 56.0182 59.2774 56.2366 59.2774 56.2366 55.8305C56.2366 55.7374 56.1779 55.6546 56.0898 55.624L54.559 55.0932C54.4923 55.0691 54.4189 55.0803 54.3608 55.1213 54.3029 55.1622 54.2686 55.228 54.2686 55.2987L54.2686 58.8583C54.2686 58.9573 54.3353 59.0436 54.4301 59.0692L55.9612 59.4882C56.0258 59.5061 56.0977 59.4926 56.1514 59.4506 56.2052 59.4098 56.2366 59.3449 56.2366 59.2774ZM56.0182 63.5863 56.0575 63.3712 54.7056 63.1247 54.7056 60.0294 55.7997 60.3084 55.7997 63.5863 56.0182 63.5863 56.0575 63.3712 56.0182 63.5863 56.2366 63.5863 56.2366 60.1395C56.2366 60.0394 56.1694 59.9516 56.0728 59.9269L54.5417 59.536C54.4771 59.5199 54.406 59.5343 54.3532 59.5754 54.3003 59.6171 54.2686 59.6811 54.2686 59.7484L54.2686 63.3074C54.2686 63.4131 54.3447 63.5027 54.4489 63.5223L55.9797 63.8005C56.0431 63.8125 56.1086 63.7954 56.1582 63.7535 56.2085 63.7118 56.2366 63.6504 56.2366 63.5863ZM56.0182 67.8953 56.0387 67.6775 54.7056 67.5556 54.7056 64.4535 55.7997 64.6335 55.7997 67.8953 56.0182 67.8953 56.0387 67.6775 56.0182 67.8953 56.2366 67.8953 56.2366 64.4474C56.2366 64.3407 56.1591 64.2494 56.054 64.2324L54.5229 63.9807C54.4598 63.9704 54.3951 63.9883 54.3464 64.0301 54.2968 64.0711 54.2686 64.1325 54.2686 64.1965L54.2686 67.7553C54.2686 67.868 54.3558 67.9626 54.4677 67.9729L55.9985 68.1129C56.0601 68.118 56.1206 68.0983 56.1659 68.0566 56.2111 68.0146 56.2366 67.9567 56.2366 67.8953ZM56.0182 72.2032 56.0182 71.9847 54.7056 71.9847 54.7056 68.88 55.7997 68.9595 55.7997 72.2032 56.0182 72.2032 56.0182 71.9847 56.0182 72.2032 56.2366 72.2032 56.2366 68.7572C56.2366 68.6421 56.1488 68.5472 56.0343 68.5387L54.5035 68.4277C54.4428 68.4227 54.3831 68.4439 54.3388 68.4859 54.2944 68.5267 54.2686 68.5848 54.2686 68.6453L54.2686 72.2032C54.2686 72.2613 54.2927 72.3177 54.3326 72.3577 54.3737 72.3987 54.4301 72.4217 54.4871 72.4217L56.0182 72.4217C56.0772 72.4217 56.1318 72.3996 56.1726 72.3577 56.2146 72.3168 56.2366 72.2622 56.2366 72.2032ZM54.0349 36.2864 54.1638 36.1097 52.7231 35.0584 52.7231 31.9211 53.8164 32.7994 53.8164 36.2864 54.0349 36.2864 54.1638 36.1097 54.0349 36.2864 54.2533 36.2864 54.2533 32.6943C54.2533 32.6279 54.2234 32.5656 54.1723 32.5236L52.6412 31.2956C52.5755 31.2427 52.4859 31.2325 52.4101 31.2692 52.334 31.305 52.2862 31.3819 52.2862 31.4654L52.2862 35.17C52.2862 35.2393 52.3196 35.305 52.3758 35.3459L53.906 36.463C53.9726 36.5108 54.0604 36.5184 54.1338 36.4809 54.2072 36.4442 54.2533 36.3684 54.2533 36.2864ZM54.0349 40.7763 54.1526 40.5919 52.7231 39.6787 52.7231 36.5184 53.8164 37.296 53.8164 40.7763 54.0349 40.7763 54.1526 40.5919 54.0349 40.7763 54.2533 40.7763 54.2533 37.1833C54.2533 37.1125 54.2193 37.0467 54.162 37.0059L52.6309 35.9168C52.5645 35.87 52.4765 35.8639 52.4048 35.9006 52.3323 35.9382 52.2862 36.0133 52.2862 36.0953L52.2862 39.7982C52.2862 39.8733 52.3238 39.9424 52.3869 39.9826L53.918 40.9596C53.9855 41.0033 54.0698 41.0057 54.1399 40.9675 54.2107 40.929 54.2533 40.8556 54.2533 40.7763ZM54.0349 45.2653 54.1399 45.0739 52.7231 44.2983 52.7231 41.1167 53.8164 41.7953 53.8164 45.2653 54.0349 45.2653 54.1399 45.0739 54.0349 45.2653 54.2533 45.2653 54.2533 41.6731C54.2533 41.5971 54.2149 41.5281 54.15 41.4879L52.62 40.539C52.5525 40.4971 52.468 40.4953 52.3981 40.5338 52.329 40.5722 52.2862 40.6448 52.2862 40.7241L52.2862 44.4279C52.2862 44.5074 52.3297 44.5808 52.3998 44.619L53.9309 45.4571C53.9982 45.4938 54.0801 45.4929 54.1467 45.4538 54.2134 45.4136 54.2533 45.3429 54.2533 45.2653ZM54.0349 49.7549 54.1262 49.5561 52.7231 48.9169 52.7231 45.7167 53.8164 46.2952 53.8164 49.7549 54.0349 49.7549 54.1262 49.5561 54.0349 49.7549 54.2533 49.7549 54.2533 46.1639C54.2533 46.0828 54.209 46.0085 54.1373 45.971L52.6071 45.1611C52.5387 45.1253 52.4577 45.127 52.3922 45.167 52.3264 45.2063 52.2862 45.2771 52.2862 45.354L52.2862 49.0578C52.2862 49.1432 52.3358 49.2208 52.4142 49.2557L53.9444 49.9538C54.0128 49.9846 54.0912 49.9795 54.1535 49.9393 54.2158 49.8991 54.2533 49.8301 54.2533 49.7549ZM54.0349 54.2448 54.11 54.0392 52.7231 53.5339 52.7231 50.3173 53.8164 50.7962 53.8164 54.2448 54.0349 54.2448 54.11 54.0392 54.0349 54.2448 54.2533 54.2448 54.2533 50.6538C54.2533 50.5657 54.2031 50.4881 54.1227 50.4532L52.5927 49.7831C52.5243 49.7532 52.4468 49.7602 52.3852 49.8002 52.3229 49.8412 52.2862 49.9094 52.2862 49.9828L52.2862 53.6866C52.2862 53.7779 52.3434 53.8607 52.4295 53.8924L53.9606 54.4504C54.0281 54.4744 54.1024 54.465 54.1603 54.424 54.2193 54.3831 54.2533 54.3165 54.2533 54.2448ZM54.0349 58.7356 54.093 58.5247 52.7231 58.1492 52.7231 54.9199 53.8164 55.2987 53.8164 58.7356 54.0349 58.7356 54.093 58.5247 54.0349 58.7356 54.2533 58.7356 54.2533 55.1425C54.2533 55.0497 54.1946 54.9669 54.1065 54.9361L52.5763 54.406C52.509 54.3831 52.4356 54.3934 52.3775 54.4342 52.3203 54.4762 52.2862 54.5417 52.2862 54.6127L52.2862 58.3165C52.2862 58.4146 52.352 58.5009 52.4468 58.5265L53.9776 58.9455C54.0425 58.9634 54.1135 58.9497 54.1681 58.9088 54.2219 58.8677 54.2533 58.8029 54.2533 58.7356ZM54.0349 63.2246 54.0742 63.0094 52.7231 62.7627 52.7231 59.5232 53.8164 59.8024 53.8164 63.2246 54.0349 63.2246 54.0742 63.0094 54.0349 63.2246 54.2533 63.2246 54.2533 59.6324C54.2533 59.5334 54.186 59.4456 54.0895 59.4207L52.5584 59.0298C52.4935 59.0137 52.4236 59.0283 52.3707 59.0692 52.3179 59.1109 52.2862 59.1749 52.2862 59.2415L52.2862 62.9453C52.2862 63.0513 52.3613 63.1418 52.4656 63.1605L53.9955 63.4395C54.0595 63.4507 54.1253 63.4336 54.1749 63.3926 54.2252 63.3508 54.2533 63.2894 54.2533 63.2246ZM54.0349 67.7142 54.0554 67.4966 52.7231 67.3756 52.7231 64.1282 53.8164 64.3075 53.8164 67.7142 54.0349 67.7142 54.0554 67.4966 54.0349 67.7142 54.2533 67.7142 54.2533 64.1214C54.2533 64.0148 54.1758 63.9235 54.0707 63.9064L52.5396 63.6554C52.4765 63.6451 52.4116 63.663 52.3631 63.7041 52.3144 63.7458 52.2862 63.8066 52.2862 63.8715L52.2862 67.5753C52.2862 67.6869 52.3725 67.7817 52.485 67.792L54.0152 67.932C54.0768 67.937 54.1373 67.9174 54.1826 67.8757 54.2278 67.8337 54.2533 67.7758 54.2533 67.7142ZM54.0349 72.2032 54.0349 71.9847 52.7231 71.9847 52.7231 68.7349 53.8164 68.8151 53.8164 72.2032 54.0349 72.2032 54.0349 71.9847 54.0349 72.2032 54.2533 72.2032 54.2533 68.6121C54.2533 68.4968 54.1655 68.4022 54.051 68.3945L52.5208 68.2827C52.4594 68.2776 52.4007 68.2988 52.3563 68.3399 52.3111 68.3816 52.2862 68.4398 52.2862 68.5003L52.2862 72.2032C52.2862 72.2613 52.3093 72.3177 52.3502 72.3577 52.3913 72.3987 52.4474 72.4217 52.5047 72.4217L54.0349 72.4217C54.0939 72.4217 54.1485 72.3996 54.1893 72.3577 54.2313 72.3168 54.2533 72.2622 54.2533 72.2032ZM58.8806 34.4327 59.0163 34.2612 51.7623 28.4895C51.6974 28.4375 51.607 28.4272 51.5318 28.464 51.4558 28.4998 51.4081 28.5767 51.4081 28.6612L51.4081 74.6781C51.4081 74.7362 51.4311 74.7926 51.4722 74.8325 51.513 74.8736 51.5685 74.8966 51.6266 74.8966L58.8806 74.8966C58.9379 74.8966 58.994 74.8736 59.0351 74.8325 59.0751 74.7926 59.0991 74.7362 59.0991 74.6781L59.0991 34.4327C59.0991 34.3663 59.0683 34.3031 59.0163 34.2612L58.8806 34.4327 58.6613 34.4327 58.6613 74.4596 51.8451 74.4596 51.8451 29.1135 58.7441 34.6035 58.8806 34.4327 58.6613 34.4327 58.8806 34.4327" fill="#D4E2E5" transform="matrix(1.70175 0 0 1 871.439 484.063)"/><path d="M49.8718 72.2032 49.2942 72.2032 49.2942 31.3646 49.8718 30.8552ZM48.7445 72.2032 48.1677 72.2032 48.1677 32.3565 48.7445 31.8477ZM47.618 72.2032 47.0402 72.2032 47.0402 33.349 47.618 32.8393ZM46.4907 72.2032 45.912 72.2032 45.912 34.3416 46.4907 33.8319ZM45.3643 72.2032 44.7855 72.2032 44.7855 35.3332 45.3643 34.8237ZM43.5463 34.4327 43.5463 74.6781 51.111 74.6781 51.111 28.6612 43.5463 34.4327" fill="#D4E2E5" transform="matrix(1.70175 0 0 1 871.439 484.063)"/><path d="M49.8718 72.2032 49.8718 71.9847 49.5127 71.9847 49.5127 31.4629 49.6534 31.3391 49.6534 72.2032 49.8718 72.2032 49.8718 71.9847 49.8718 72.2032 50.0903 72.2032 50.0903 30.8552C50.0903 30.7699 50.0401 30.6913 49.9616 30.6563 49.8838 30.6214 49.7917 30.6352 49.7276 30.6913L49.15 31.2001C49.103 31.241 49.0757 31.3015 49.0757 31.3646L49.0757 72.2032C49.0757 72.2613 49.0986 72.3177 49.1397 72.3577 49.1806 72.3987 49.2361 72.4217 49.2942 72.4217L49.8718 72.4217C49.9299 72.4217 49.9846 72.3996 50.0263 72.3577 50.0674 72.3168 50.0903 72.2622 50.0903 72.2032ZM48.7445 72.2032 48.7445 71.9847 48.3862 71.9847 48.3862 32.4555 48.526 32.3307 48.526 72.2032 48.7445 72.2032 48.7445 71.9847 48.7445 72.2032 48.963 72.2032 48.963 31.8477C48.963 31.7625 48.9127 31.6838 48.8349 31.6489 48.7574 31.613 48.6643 31.6268 48.6003 31.6838L48.0227 32.1927C47.9757 32.2335 47.9484 32.294 47.9484 32.3565L47.9484 72.2032C47.9484 72.2613 47.9722 72.3177 48.0133 72.3577 48.0532 72.3987 48.1096 72.4217 48.1677 72.4217L48.7445 72.4217C48.8035 72.4217 48.8581 72.3996 48.899 72.3577 48.9409 72.3168 48.963 72.2622 48.963 72.2032ZM47.618 72.2032 47.618 71.9847 47.2587 71.9847 47.2587 33.4471 47.3996 33.3224 47.3996 72.2032 47.618 72.2032 47.618 71.9847 47.618 72.2032 47.8365 72.2032 47.8365 32.8393C47.8365 32.7541 47.7863 32.6755 47.7076 32.6405 47.6301 32.6047 47.5379 32.6185 47.4739 32.6755L46.8951 33.1843C46.8484 33.2252 46.8211 33.2857 46.8211 33.349L46.8211 72.2032C46.8211 72.2613 46.8449 72.3177 46.8857 72.3577 46.9259 72.3987 46.9823 72.4217 47.0402 72.4217L47.618 72.4217C47.6762 72.4217 47.7317 72.3996 47.7725 72.3577 47.8136 72.3168 47.8365 72.2622 47.8365 72.2032ZM46.4907 72.2032 46.4907 71.9847 46.1305 71.9847 46.1305 34.4397 46.2722 34.3149 46.2722 72.2032 46.4907 72.2032 46.4907 71.9847 46.4907 72.2032 46.7092 72.2032 46.7092 33.8319C46.7092 33.7467 46.6587 33.668 46.5803 33.6331 46.5027 33.5972 46.4105 33.611 46.3465 33.668L45.7678 34.1768C45.7208 34.2177 45.6935 34.2782 45.6935 34.3416L45.6935 72.2032C45.6935 72.2613 45.7175 72.3177 45.7575 72.3577 45.7986 72.3987 45.855 72.4217 45.912 72.4217L46.4907 72.4217C46.5486 72.4217 46.6032 72.3996 46.6452 72.3577 46.686 72.3168 46.7092 72.2622 46.7092 72.2032ZM45.3643 72.2032 45.3643 71.9847 45.004 71.9847 45.004 35.4313 45.1449 35.3066 45.1449 72.2032 45.3643 72.2032 45.3643 71.9847 45.3643 72.2032 45.5827 72.2032 45.5827 34.8237C45.5827 34.7383 45.5314 34.6599 45.4538 34.6247 45.3752 34.5889 45.2832 34.6035 45.2192 34.6599L44.6413 35.1694C44.5944 35.2102 44.5671 35.2707 44.5671 35.3332L44.5671 72.2032C44.5671 72.2613 44.5902 72.3177 44.6311 72.3577 44.6721 72.3987 44.7283 72.4217 44.7855 72.4217L45.3643 72.4217C45.4222 72.4217 45.4768 72.3996 45.5179 72.3577 45.5596 72.3168 45.5827 72.2622 45.5827 72.2032ZM43.5463 34.4327 43.3279 34.4327 43.3279 74.6781C43.3279 74.7362 43.351 74.7926 43.3919 74.8325 43.4329 74.8736 43.4893 74.8966 43.5463 74.8966L51.111 74.8966C51.1691 74.8966 51.2255 74.8736 51.2655 74.8325 51.3066 74.7926 51.3295 74.7362 51.3295 74.6781L51.3295 28.6612C51.3295 28.5776 51.2825 28.5015 51.2085 28.4648 51.1342 28.4281 51.0446 28.4366 50.9788 28.4871L43.4142 34.2588C43.3595 34.2996 43.3279 34.3645 43.3279 34.4327L43.5463 34.4327 43.6787 34.6059 50.8925 29.1023 50.8925 74.4596 43.7648 74.4596 43.7648 34.4327 43.5463 34.4327 43.6787 34.6059 43.5463 34.4327" fill="#D4E2E5" transform="matrix(1.70175 0 0 1 871.439 484.063)"/><path d="M42.3712 35.6422 41.1501 34.4054 41.1501 30.0846 42.3712 31.4629ZM42.3712 40.865 41.1501 39.8058 41.1501 35.4851 42.3712 36.6867ZM42.3712 46.0879 41.1501 45.2046 41.1501 40.8855 42.3712 41.9095ZM42.3712 56.5346 41.1501 56.0055 41.1501 51.6845 42.3712 52.3563ZM42.3712 61.7584 41.1501 61.4049 41.1501 57.0841 42.3712 57.58ZM42.3712 72.2032 41.1501 72.2032 41.1501 67.8842 42.3712 68.0249ZM40.7881 28.5885 39.5668 27.1754 39.5668 22.6726 40.7881 24.2269ZM40.7881 50.396 39.5668 49.6901 39.5668 45.1866 40.7881 46.035ZM40.7881 55.8484 39.5668 55.3184 39.5668 50.8159 40.7881 51.4874ZM40.7881 66.7516 39.5668 66.5757 39.5668 62.0723 40.7881 62.3898ZM39.2059 26.7581 37.9838 25.3457 37.9838 20.6595 39.2059 22.2136ZM39.2059 38.1194 37.9838 37.0596 37.9838 32.3744 39.2059 33.5752ZM39.2059 43.7998 37.9838 42.9167 37.9838 38.2304 39.2059 39.2555ZM39.2059 49.4801 37.9838 48.7744 37.9838 44.0884 39.2059 44.9367ZM39.2059 60.8425 37.9838 60.4893 37.9838 55.8032 39.2059 56.2983ZM39.2059 66.5229 37.9838 66.3472 37.9838 61.6601 39.2059 61.9786ZM39.2059 72.2032 37.9838 72.2032 37.9838 67.518 39.2059 67.6589ZM43.0318 24.5843 37.3242 18.217 37.3242 74.6781 43.0318 74.6781 43.0318 24.5843" fill="#D4E2E5" transform="matrix(1.70175 0 0 1 871.439 484.063)"/><path d="M42.3712 35.6422 42.5265 35.4886 41.3677 34.3158 41.3677 30.6607 42.1527 31.5458 42.1527 35.6422 42.3712 35.6422 42.5265 35.4886 42.3712 35.6422 42.5896 35.6422 42.5896 31.4629C42.5896 31.4101 42.5702 31.3579 42.535 31.3179L41.3131 29.9404C41.2524 29.872 41.1569 29.8482 41.0723 29.8808 40.9869 29.9131 40.9308 29.9941 40.9308 30.0846L40.9308 34.4054C40.9308 34.4635 40.9537 34.5181 40.9939 34.5592L42.2158 35.7957C42.2783 35.8589 42.3729 35.8777 42.4548 35.8442 42.5359 35.8102 42.5896 35.7309 42.5896 35.6422ZM42.3712 40.865 42.5147 40.6994 41.3677 39.706 41.3677 36.0066 42.1527 36.778 42.1527 40.865 42.3712 40.865 42.5147 40.6994 42.3712 40.865 42.5896 40.865 42.5896 36.6867C42.5896 36.6277 42.5667 36.5715 42.525 36.5305L41.3028 35.3289C41.2406 35.2675 41.1457 35.2495 41.0647 35.2836 40.9845 35.3177 40.9308 35.3972 40.9308 35.4851L40.9308 39.8058C40.9308 39.869 40.9589 39.9297 41.0066 39.9706L42.2287 41.0297C42.2936 41.0861 42.3849 41.0988 42.4625 41.0629 42.5403 41.028 42.5896 40.9504 42.5896 40.865ZM42.3712 46.0879 42.4992 45.9113 41.3677 45.0927 41.3677 41.3531 42.1527 42.012 42.1527 46.0879 42.3712 46.0879 42.4992 45.9113 42.3712 46.0879 42.5896 46.0879 42.5896 41.9095C42.5896 41.8446 42.5615 41.7841 42.5121 41.7422L41.2899 40.7173C41.225 40.6627 41.1337 40.6507 41.057 40.6865 40.9801 40.7232 40.9316 40.8001 40.9316 40.8855L40.9316 45.2046C40.9316 45.2753 40.9648 45.3411 41.0221 45.3822L42.2431 46.2655C42.3098 46.3131 42.3976 46.3201 42.471 46.2825 42.5444 46.2458 42.5896 46.1707 42.5896 46.0879ZM42.3712 56.5346 42.4583 56.3347 41.3677 55.8613 41.3677 52.0542 42.1527 52.485 42.1527 56.5346 42.3712 56.5346 42.4583 56.3347 42.3712 56.5346 42.5896 56.5346 42.5896 52.3563C42.5896 52.2768 42.5462 52.2025 42.4771 52.1652L41.255 51.4934C41.1868 51.4558 41.1049 51.4566 41.0382 51.4968 40.9716 51.5362 40.9308 51.607 40.9308 51.6845L40.9308 56.0055C40.9308 56.0916 40.9828 56.1709 41.0629 56.2052L42.2851 56.7352C42.3524 56.7649 42.4302 56.7581 42.4915 56.7171 42.5529 56.6771 42.5896 56.6087 42.5896 56.5346ZM42.3712 61.7584 42.4328 61.5484 41.3677 61.2404 41.3677 57.4085 42.1527 57.7269 42.1527 61.7584 42.3712 61.7584 42.4328 61.5484 42.3712 61.7584 42.5896 61.7584 42.5896 57.58C42.5896 57.4905 42.5359 57.4101 42.454 57.3769L41.232 56.8818C41.1645 56.8545 41.0876 56.8624 41.0271 56.9032 40.9675 56.9434 40.9308 57.0116 40.9308 57.0841L40.9308 61.4049C40.9308 61.5014 40.9957 61.5875 41.0885 61.6142L42.3106 61.9675C42.3773 61.9871 42.4481 61.9734 42.5027 61.9325 42.5582 61.8914 42.5896 61.8265 42.5896 61.7584ZM42.3712 72.2032 42.3712 71.9847 41.3677 71.9847 41.3677 68.1291 42.1527 68.2195 42.1527 72.2032 42.3712 72.2032 42.3712 71.9847 42.3712 72.2032 42.5896 72.2032 42.5896 68.0249C42.5896 67.9139 42.5068 67.821 42.3969 67.8082L41.1748 67.6666C41.1125 67.6596 41.0509 67.6793 41.0042 67.7203 40.9581 67.7621 40.9316 67.821 40.9316 67.8842L40.9316 72.2032C40.9316 72.2622 40.9537 72.3168 40.9957 72.3577 41.0365 72.3996 41.0911 72.4217 41.1501 72.4217L42.3712 72.4217C42.4302 72.4217 42.4848 72.3996 42.5256 72.3577 42.5676 72.3168 42.5896 72.2622 42.5896 72.2032ZM40.7881 28.5885 40.9537 28.4452 39.7853 27.0935 39.7853 23.3042 40.5696 24.3018 40.5696 28.5885 40.7881 28.5885 40.9537 28.4452 40.7881 28.5885 41.0066 28.5885 41.0066 24.2269C41.0066 24.1781 40.9904 24.1294 40.9605 24.0918L39.7385 22.5378C39.6813 22.4644 39.5832 22.4354 39.4952 22.4662 39.4073 22.497 39.3484 22.5798 39.3484 22.6726L39.3484 27.1754C39.3484 27.2274 39.3671 27.2776 39.4014 27.3178L40.6234 28.7311C40.6824 28.8002 40.7796 28.8251 40.865 28.7934 40.9504 28.7617 41.0066 28.6798 41.0066 28.5885ZM40.7881 50.396 40.8973 50.2065 39.7853 49.5638 39.7853 45.6048 40.5696 46.1492 40.5696 50.396 40.7881 50.396 40.8973 50.2065 40.7881 50.396 41.0066 50.396 41.0066 46.035C41.0066 45.9633 40.9716 45.8958 40.9128 45.8558L39.6916 45.0075C39.6241 44.9614 39.538 44.9555 39.4655 44.9937 39.3936 45.0313 39.3484 45.1056 39.3484 45.1866L39.3484 49.6901C39.3484 49.7687 39.3903 49.8404 39.4576 49.8797L40.6789 50.5854C40.7472 50.6238 40.83 50.6238 40.8973 50.5854 40.9657 50.546 41.0066 50.4735 41.0066 50.396ZM40.7881 55.8484 40.8753 55.6479 39.7853 55.1751 39.7853 51.1844 40.5696 51.6163 40.5696 55.8484 40.7881 55.8484 40.8753 55.6479 40.7881 55.8484 41.0066 55.8484 41.0066 51.4874C41.0066 51.4081 40.9631 51.3339 40.8941 51.2963L39.6719 50.6238C39.6044 50.5862 39.5225 50.588 39.4561 50.6271 39.3894 50.6664 39.3484 50.7381 39.3484 50.8159L39.3484 55.3184C39.3484 55.4056 39.4006 55.484 39.4799 55.519L40.702 56.0481C40.7693 56.078 40.8471 56.071 40.9085 56.0311 40.9699 55.99 41.0066 55.9218 41.0066 55.8484ZM40.7881 66.7516 40.8198 66.5358 39.7853 66.3863 39.7853 62.3548 40.5696 62.5589 40.5696 66.7516 40.7881 66.7516 40.8198 66.5358 40.7881 66.7516 41.0066 66.7516 41.0066 62.3898C41.0066 62.2908 40.9402 62.2038 40.8436 62.1789L39.6214 61.8606C39.5559 61.8436 39.4866 61.8582 39.4329 61.8991 39.3792 61.941 39.3484 62.0042 39.3484 62.0723L39.3484 66.5757C39.3484 66.6843 39.4279 66.7756 39.5354 66.7918L40.7575 66.9683C40.8198 66.9769 40.8838 66.9581 40.9316 66.9172 40.9793 66.8761 41.0066 66.8148 41.0066 66.7516ZM39.2059 26.7581 39.3715 26.6146 38.2022 25.2637 38.2022 21.2902 38.9874 22.2888 38.9874 26.7581 39.2059 26.7581 39.3715 26.6146 39.2059 26.7581 39.4244 26.7581 39.4244 22.2136C39.4244 22.164 39.4073 22.1162 39.3774 22.0779L38.1555 20.5238C38.0982 20.4504 38.0001 20.4223 37.9121 20.4521 37.8243 20.4828 37.7653 20.5656 37.7653 20.6595L37.7653 25.3457C37.7653 25.3977 37.7841 25.4479 37.8184 25.4881L39.0403 26.9005C39.1002 26.9696 39.1965 26.9945 39.2819 26.9628 39.3671 26.9314 39.4244 26.8494 39.4244 26.7581ZM39.2059 38.1194 39.3492 37.954 38.2022 36.9598 38.2022 32.8948 38.9874 33.6665 38.9874 38.1194 39.2059 38.1194 39.3492 37.954 39.2059 38.1194 39.4244 38.1194 39.4244 33.5752C39.4244 33.5162 39.4006 33.4598 39.3586 33.419L38.1367 32.2182C38.0742 32.1568 37.9805 32.1387 37.8994 32.1721 37.8184 32.2062 37.7653 32.2864 37.7653 32.3744L37.7653 37.0596C37.7653 37.1219 37.7926 37.1824 37.8404 37.2243L39.0626 38.2842C39.1275 38.3405 39.2188 38.3534 39.2964 38.3176 39.375 38.2826 39.4244 38.2049 39.4244 38.1194ZM39.2059 43.7998 39.3339 43.6224 38.2022 42.8057 38.2022 38.699 38.9874 39.3571 38.9874 43.7998 39.2059 43.7998 39.3339 43.6224 39.2059 43.7998 39.4244 43.7998 39.4244 39.2555C39.4244 39.1906 39.3953 39.1299 39.3459 39.0882L38.1238 38.0633C38.0589 38.0087 37.9685 37.9967 37.8918 38.0334 37.8149 38.0692 37.7653 38.1461 37.7653 38.2304L37.7653 42.9167C37.7653 42.9875 37.7987 43.053 37.8557 43.0941L39.0779 43.9765C39.1445 44.0252 39.2323 44.032 39.3049 43.9944 39.3783 43.9569 39.4244 43.8817 39.4244 43.7998ZM39.2059 49.4801 39.3151 49.2916 38.2022 48.6482 38.2022 44.5057 38.9874 45.0501 38.9874 49.4801 39.2059 49.4801 39.3151 49.2916 39.2059 49.4801 39.4244 49.4801 39.4244 44.9367C39.4244 44.8648 39.3894 44.7975 39.3304 44.7565L38.1085 43.909C38.041 43.8623 37.9549 43.857 37.8824 43.8946 37.8105 43.9322 37.7653 44.0064 37.7653 44.0884L37.7653 48.7744C37.7653 48.852 37.8072 48.9247 37.8745 48.9639L39.0967 49.6697C39.1642 49.7088 39.2479 49.7088 39.3151 49.6697 39.3826 49.6313 39.4244 49.5588 39.4244 49.4801ZM39.2059 60.8425 39.2664 60.6326 38.2022 60.3245 38.2022 56.1274 38.9874 56.4449 38.9874 60.8425 39.2059 60.8425 39.2664 60.6326 39.2059 60.8425 39.4244 60.8425 39.4244 56.2983C39.4244 56.2093 39.3706 56.1292 39.2878 56.096L38.0657 55.6009C37.9984 55.5736 37.9215 55.5812 37.8619 55.6223 37.802 55.6623 37.7653 55.7307 37.7653 55.8032L37.7653 60.4893C37.7653 60.5865 37.8293 60.6719 37.9232 60.6992L39.1454 61.0525C39.2112 61.0721 39.2819 61.0586 39.3374 61.0175 39.392 60.9767 39.4244 60.9118 39.4244 60.8425ZM39.2059 66.5229 39.2376 66.307 38.2022 66.1576 38.2022 61.9426 38.9874 62.1466 38.9874 66.5229 39.2059 66.5229 39.2376 66.307 39.2059 66.5229 39.4244 66.5229 39.4244 61.9786C39.4244 61.8785 39.3571 61.7916 39.2605 61.7669L38.0384 61.4494C37.9728 61.4324 37.9036 61.446 37.8498 61.4877 37.7961 61.5296 37.7653 61.5928 37.7653 61.6601L37.7653 66.3472C37.7653 66.4564 37.8448 66.5478 37.9523 66.5631L39.1744 66.7396C39.2376 66.7483 39.3016 66.7304 39.3484 66.6885 39.3962 66.6467 39.4244 66.586 39.4244 66.5229ZM39.2059 72.2032 39.2059 71.9847 38.2022 71.9847 38.2022 67.7629 38.9874 67.8534 38.9874 72.2032 39.2059 72.2032 39.2059 71.9847 39.2059 72.2032 39.4244 72.2032 39.4244 67.6589C39.4244 67.5488 39.3407 67.4549 39.2306 67.442L38.0087 67.3013C37.9471 67.2936 37.8848 67.3131 37.8387 67.355 37.7917 67.3959 37.7653 67.4557 37.7653 67.518L37.7653 72.2032C37.7653 72.2613 37.7884 72.3177 37.8293 72.3577 37.8704 72.3987 37.9267 72.4217 37.9838 72.4217L39.2059 72.4217C39.264 72.4217 39.3195 72.3996 39.3604 72.3577 39.4014 72.3168 39.4244 72.2622 39.4244 72.2032ZM43.0318 24.5843 43.1939 24.4392 37.4872 18.0711C37.4267 18.0037 37.3301 17.9806 37.2455 18.013 37.1621 18.0455 37.1057 18.1266 37.1057 18.217L37.1057 74.6781C37.1057 74.7362 37.1287 74.7926 37.1697 74.8325 37.2106 74.8736 37.2661 74.8966 37.3242 74.8966L43.0318 74.8966C43.0891 74.8966 43.1452 74.8736 43.1863 74.8325 43.2263 74.7926 43.2503 74.7362 43.2503 74.6781L43.2503 24.5843C43.2503 24.5305 43.2298 24.4794 43.1939 24.4392L43.0318 24.5843 42.8125 24.5843 42.8125 74.4596 37.5427 74.4596 37.5427 18.788 42.8688 24.7302 43.0318 24.5843 42.8125 24.5843 43.0318 24.5843" fill="#D4E2E5" transform="matrix(1.70175 0 0 1 871.439 484.063)"/><path d="M36.1977 22.6479 31.468 28.0135 31.468 25.9814 36.1977 20.3685ZM36.1977 26.187 31.468 31.1702 31.468 29.1373 36.1977 23.9085ZM36.1977 29.727 31.468 34.3261 31.468 32.294 36.1977 27.4485ZM36.1977 33.2671 31.468 37.4828 31.468 35.451 36.1977 30.9884ZM36.1977 36.8062 31.468 40.6398 31.468 38.6077 36.1977 34.5275ZM36.1977 40.3461 31.468 43.7956 31.468 41.7627 36.1977 38.0674ZM36.1977 43.8861 31.468 46.9524 31.468 44.9194 36.1977 41.6065ZM36.1977 47.4251 31.468 50.1082 31.468 48.0764 36.1977 45.1473ZM36.1977 50.966 31.468 53.2661 31.468 51.2331 36.1977 48.6866ZM36.1977 54.505 31.468 56.4219 31.468 54.389 36.1977 52.2265ZM36.1977 58.0452 31.468 59.5787 31.468 57.5457 36.1977 55.7665ZM36.1977 61.5851 31.468 62.7345 31.468 60.7027 36.1977 59.3047ZM36.1977 65.1251 31.468 65.8915 31.468 63.8586 36.1977 62.8446ZM36.1977 68.6641 31.468 69.0482 31.468 67.0153 36.1977 66.3846ZM36.1977 72.2032 31.468 72.2032 31.468 70.1714 36.1977 69.9254ZM30.856 24.5843 30.856 74.6781 36.8086 74.6781 36.8086 18.217 30.856 24.5843" fill="#D4E2E5" transform="matrix(1.70175 0 0 1 871.439 484.063)"/><path d="M36.1977 22.6479 36.0339 22.5037 31.6865 27.4347 31.6865 26.0607 35.9793 20.9667 35.9793 22.6479 36.1977 22.6479 36.0339 22.5037 36.1977 22.6479 36.4162 22.6479 36.4162 20.3685C36.4162 20.2772 36.359 20.1944 36.2727 20.1628 36.1866 20.1321 36.0894 20.1577 36.0304 20.2277L31.3008 25.8405C31.2674 25.8798 31.2495 25.9303 31.2495 25.9814L31.2495 28.0135C31.2495 28.1048 31.3059 28.1858 31.3913 28.2173 31.4756 28.2498 31.5713 28.2258 31.6318 28.1576L36.3616 22.7921C36.3965 22.7522 36.4162 22.7008 36.4162 22.6479ZM36.1977 26.187 36.0389 26.0369 31.6865 30.6223 31.6865 29.2218 35.9793 24.475 35.9793 26.187 36.1977 26.187 36.0389 26.0369 36.1977 26.187 36.4162 26.187 36.4162 23.9085C36.4162 23.8181 36.3607 23.7368 36.2762 23.7045 36.1916 23.6721 36.0961 23.6951 36.0354 23.7617L31.3059 28.9914C31.27 29.0315 31.2495 29.0835 31.2495 29.1373L31.2495 31.1702C31.2495 31.2589 31.3032 31.3391 31.3869 31.3725 31.4706 31.4057 31.5645 31.3852 31.6268 31.3203L36.3563 26.3382C36.3948 26.2971 36.4162 26.2434 36.4162 26.187ZM36.1977 29.727 36.0448 29.5701 31.6865 33.8089 31.6865 32.3838 35.9793 27.9844 35.9793 29.727 36.1977 29.727 36.0448 29.5701 36.1977 29.727 36.4162 29.727 36.4162 27.4485C36.4162 27.3589 36.3625 27.2794 36.2803 27.2453 36.1977 27.2121 36.1038 27.2318 36.0415 27.2958L31.3118 32.1422C31.2718 32.1824 31.2495 32.2379 31.2495 32.294L31.2495 34.3261C31.2495 34.4141 31.3024 34.4934 31.3828 34.5275 31.4638 34.5616 31.5576 34.5437 31.6198 34.4831L36.3496 29.8832C36.3922 29.8423 36.4162 29.7859 36.4162 29.727ZM36.1977 33.2671 36.0527 33.1039 31.6865 36.9956 31.6865 35.5447 35.9793 31.4944 35.9793 33.2671 36.1977 33.2671 36.0527 33.1039 36.1977 33.2671 36.4162 33.2671 36.4162 30.9884C36.4162 30.9006 36.364 30.8219 36.2838 30.787 36.2045 30.7529 36.1106 30.7691 36.0474 30.8287L31.3179 35.2913C31.2742 35.3332 31.2495 35.3903 31.2495 35.451L31.2495 37.4828C31.2495 37.5691 31.3 37.6467 31.3784 37.6825 31.4577 37.7177 31.549 37.703 31.613 37.6458L36.3428 33.431C36.3895 33.389 36.4162 33.3303 36.4162 33.2671ZM36.1977 36.8062 36.0603 36.6362 31.6865 40.1805 31.6865 38.7076 35.9793 35.0046 35.9793 36.8062 36.1977 36.8062 36.0603 36.6362 36.1977 36.8062 36.4162 36.8062 36.4162 34.5275C36.4162 34.4421 36.3666 34.3654 36.2891 34.3296 36.2104 34.2937 36.12 34.3064 36.0551 34.3628L31.3255 38.4421C31.2777 38.4832 31.2495 38.5437 31.2495 38.6077L31.2495 40.6398C31.2495 40.7232 31.2982 40.8001 31.374 40.8359 31.4501 40.8726 31.5396 40.8615 31.6054 40.8086L36.3349 36.9759C36.3863 36.9351 36.4162 36.8719 36.4162 36.8062ZM36.1977 40.3461 36.0688 40.1694 31.6865 43.3654 31.6865 41.8695 35.9793 38.5155 35.9793 40.3461 36.1977 40.3461 36.0688 40.1694 36.1977 40.3461 36.4162 40.3461 36.4162 38.0674C36.4162 37.9838 36.3684 37.9079 36.2932 37.8712 36.218 37.8345 36.1285 37.8439 36.0627 37.8951L31.3332 41.5912C31.2803 41.6323 31.2495 41.6963 31.2495 41.7627L31.2495 43.7956C31.2495 43.8775 31.2956 43.9536 31.369 43.9903 31.4424 44.0276 31.5302 44.02 31.5969 43.9724L36.3264 40.5227C36.3828 40.4809 36.4162 40.416 36.4162 40.3461ZM36.1977 43.8861 36.0791 43.7025 31.6865 46.5504 31.6865 45.0331 35.9793 42.0264 35.9793 43.8861 36.1977 43.8861 36.0791 43.7025 36.1977 43.8861 36.4162 43.8861 36.4162 41.6065C36.4162 41.5255 36.371 41.4512 36.2984 41.4129 36.2257 41.3754 36.1387 41.3813 36.0721 41.4282L31.3426 44.7403C31.2836 44.7814 31.2495 44.8478 31.2495 44.9194L31.2495 46.9524C31.2495 47.0325 31.293 47.1059 31.364 47.1444 31.4339 47.1828 31.5193 47.1794 31.5866 47.1359L36.3164 44.0696C36.3786 44.0294 36.4162 43.9595 36.4162 43.8861ZM36.1977 47.4251 36.09 47.2348 31.6865 49.7338 31.6865 48.1983 35.9793 45.539 35.9793 47.4251 36.1977 47.4251 36.09 47.2348 36.1977 47.4251 36.4162 47.4251 36.4162 45.1473C36.4162 45.068 36.3734 44.9955 36.3043 44.9562 36.2344 44.9179 36.1499 44.9194 36.0824 44.9614L31.3528 47.8903C31.288 47.9305 31.2495 48.0004 31.2495 48.0764L31.2495 50.1082C31.2495 50.1869 31.2906 50.2585 31.3579 50.2979 31.4254 50.337 31.5082 50.337 31.5755 50.2987L36.3052 47.6154C36.3734 47.5763 36.4162 47.5038 36.4162 47.4251ZM36.1977 50.966 36.102 50.7698 31.6865 52.9161 31.6865 51.3638 35.9793 49.0519 35.9793 50.966 36.1977 50.966 36.102 50.7698 36.1977 50.966 36.4162 50.966 36.4162 48.6866C36.4162 48.6097 36.3751 48.538 36.3094 48.4987 36.2438 48.4596 36.1619 48.4579 36.0944 48.4946L31.3646 51.0402C31.2939 51.0787 31.2495 51.153 31.2495 51.2331L31.2495 53.2661C31.2495 53.341 31.2888 53.4111 31.352 53.4502 31.416 53.4904 31.4962 53.4946 31.5637 53.4622L36.2932 51.1624C36.3684 51.1257 36.4162 51.0496 36.4162 50.966ZM36.1977 54.505 36.1158 54.3029 31.6865 56.0977 31.6865 54.5299 35.9793 52.5661 35.9793 54.505 36.1977 54.505 36.1158 54.3029 36.1977 54.505 36.4162 54.505 36.4162 52.2265C36.4162 52.1514 36.3786 52.0824 36.3155 52.0422 36.2532 52.002 36.1746 51.9961 36.1073 52.0277L31.3767 54.1911C31.2991 54.226 31.2495 54.3038 31.2495 54.389L31.2495 56.4219C31.2495 56.4944 31.2862 56.5626 31.3461 56.6028 31.4057 56.6439 31.4833 56.6515 31.5499 56.6242L36.2797 54.7073C36.3625 54.6741 36.4162 54.5939 36.4162 54.505ZM36.1977 58.0452 36.1302 57.8368 31.6865 59.2783 31.6865 57.6969 35.9793 56.0813 35.9793 58.0452 36.1977 58.0452 36.1302 57.8368 36.1977 58.0452 36.4162 58.0452 36.4162 55.7665C36.4162 55.6948 36.381 55.6273 36.3223 55.5865 36.2633 55.5454 36.1875 55.536 36.1208 55.5616L31.3913 57.341C31.3059 57.3734 31.2495 57.4544 31.2495 57.5457L31.2495 59.5787C31.2495 59.6486 31.2829 59.7143 31.3391 59.7554 31.3963 59.7963 31.4688 59.8083 31.5355 59.786L36.265 58.2534C36.3555 58.2235 36.4162 58.1398 36.4162 58.0452ZM36.1977 61.5851 36.1455 61.3725 31.6865 62.4564 31.6865 60.8657 35.9793 59.5974 35.9793 61.5851 36.1977 61.5851 36.1455 61.3725 36.1977 61.5851 36.4162 61.5851 36.4162 59.3047C36.4162 59.2365 36.3837 59.1716 36.3282 59.1297 36.2735 59.0888 36.201 59.0759 36.1352 59.0956L31.4057 60.4927C31.3126 60.5209 31.2495 60.6053 31.2495 60.7027L31.2495 62.7345C31.2495 62.802 31.2803 62.8652 31.3332 62.9062 31.3852 62.948 31.4544 62.9624 31.5193 62.9471L36.2489 61.7975C36.347 61.7737 36.4162 61.6858 36.4162 61.5851ZM36.1977 65.1251 36.1626 64.9092 31.6865 65.6345 31.6865 64.0353 35.9793 63.1153 35.9793 65.1251 36.1977 65.1251 36.1626 64.9092 36.1977 65.1251 36.4162 65.1251 36.4162 62.8446C36.4162 62.7791 36.3863 62.7166 36.3349 62.6749 36.2829 62.634 36.2165 62.6176 36.1516 62.6314L31.4219 63.6451C31.3212 63.6665 31.2495 63.7552 31.2495 63.8586L31.2495 65.8915C31.2495 65.9555 31.2777 66.016 31.3264 66.0569 31.3749 66.0988 31.4398 66.1167 31.5029 66.1065L36.2327 65.34C36.3384 65.323 36.4162 65.2317 36.4162 65.1251ZM36.1977 68.6641 36.1798 68.4465 31.6865 68.811 31.6865 67.2065 35.9793 66.6347 35.9793 68.6641 36.1977 68.6641 36.1798 68.4465 36.1977 68.6641 36.4162 68.6641 36.4162 66.3846C36.4162 66.3214 36.3889 66.2627 36.3419 66.2207 36.2941 66.179 36.2318 66.1602 36.1687 66.1687L31.4389 66.7986C31.3306 66.813 31.2495 66.9061 31.2495 67.0153L31.2495 69.0482C31.2495 69.1087 31.2751 69.1668 31.3194 69.2086 31.3646 69.2496 31.4254 69.27 31.4859 69.2658L36.2156 68.8817C36.329 68.8723 36.4162 68.7784 36.4162 68.6641ZM36.1977 72.2032 36.1977 71.9847 31.6865 71.9847 31.6865 70.3787 35.9793 70.155 35.9793 72.2032 36.1977 72.2032 36.1977 71.9847 36.1977 72.2032 36.4162 72.2032 36.4162 69.9254C36.4162 69.8649 36.3913 69.8076 36.3478 69.7668 36.3043 69.725 36.2462 69.7036 36.1866 69.7069L31.4568 69.9536C31.3408 69.9597 31.2495 70.0552 31.2495 70.1714L31.2495 72.2032C31.2495 72.2622 31.2727 72.3168 31.3135 72.3577 31.3546 72.3996 31.4101 72.4217 31.468 72.4217L36.1977 72.4217C36.2556 72.4217 36.3111 72.3996 36.3522 72.3577 36.393 72.3168 36.4162 72.2622 36.4162 72.2032ZM30.856 24.5843 30.6376 24.5843 30.6376 74.6781C30.6376 74.7362 30.6616 74.7926 30.7016 74.8325 30.7426 74.8736 30.799 74.8966 30.856 74.8966L36.8086 74.8966C36.8667 74.8966 36.9213 74.8745 36.9633 74.8325 37.0041 74.7917 37.0271 74.7371 37.0271 74.6781L37.0271 18.217C37.0271 18.1274 36.9724 18.0463 36.889 18.0139 36.8053 17.9806 36.7105 18.0019 36.6491 18.0677L30.6965 24.4359C30.659 24.4759 30.6376 24.5297 30.6376 24.5843L30.856 24.5843 31.0166 24.7337 36.5901 18.7709 36.5901 74.4596 31.0745 74.4596 31.0745 24.5843 30.856 24.5843 31.0166 24.7337 30.856 24.5843" fill="#D4E2E5" transform="matrix(1.70175 0 0 1 871.439 484.063)"/><path d="M29.6511 50.2902 28.446 49.4111 28.446 46.7227 29.6511 47.6897ZM29.6511 53.5407 28.446 52.7719 28.446 50.0827 29.6511 50.9404ZM29.6511 56.7905 28.446 56.1318 28.446 53.4426 29.6511 54.1902ZM29.6511 63.291 28.446 62.8516 28.446 60.1642 29.6511 60.6916ZM29.6511 69.7915 28.446 69.5712 28.446 66.884 29.6511 67.1912ZM29.6511 73.0413 28.446 72.932 28.446 70.2439 29.6511 70.4419ZM28.0901 49.1517 26.8853 48.2717 26.8853 45.47 28.0901 46.4378ZM28.0901 55.9362 26.8853 55.2775 26.8853 52.475 28.0901 53.2224ZM28.0901 66.1141 26.8853 65.7838 26.8853 62.9821 28.0901 63.4002ZM28.0901 69.5066 26.8853 69.2872 26.8853 66.4853 28.0901 66.7927ZM26.5285 51.5471 25.3234 50.7783 25.3234 47.8621 26.5285 48.7189ZM26.5285 55.082 25.3234 54.4231 25.3234 51.5071 26.5285 52.2547ZM26.5285 58.6169 25.3234 58.0672 25.3234 55.1519 26.5285 55.7886ZM26.5285 62.1516 25.3234 61.7131 25.3234 58.7961 26.5285 59.3235ZM26.5285 65.6874 25.3234 65.3571 25.3234 62.442 26.5285 62.8593ZM26.5285 72.7564 25.3234 72.6471 25.3234 69.7309 26.5285 69.9289ZM24.6339 42.2525 24.6339 74.6781 30.3415 74.6781 30.3415 45.9105 24.6339 42.2525" fill="#D4E2E5" transform="matrix(1.70175 0 0 1 871.439 484.063)"/><path d="M29.6511 50.2902 29.78 50.1143 28.6645 49.3001 28.6645 47.1785 29.4327 47.7948 29.4327 50.2902 29.6511 50.2902 29.78 50.1143 29.6511 50.2902 29.8696 50.2902 29.8696 47.6897C29.8696 47.6239 29.8397 47.5608 29.7877 47.52L28.5835 46.553C28.5168 46.5001 28.4281 46.4898 28.3521 46.5266 28.2763 46.5624 28.2276 46.6393 28.2276 46.7227L28.2276 49.4111C28.2276 49.481 28.2616 49.5467 28.3171 49.5878L29.5222 50.4667C29.5889 50.5155 29.6767 50.5222 29.7501 50.4855 29.8235 50.4479 29.8696 50.3728 29.8696 50.2902ZM29.6511 53.5407 29.7689 53.3565 28.6645 52.6515 28.6645 50.5069 29.4327 51.0531 29.4327 53.5407 29.6511 53.5407 29.7689 53.3565 29.6511 53.5407 29.8696 53.5407 29.8696 50.9404C29.8696 50.8696 29.8353 50.803 29.7774 50.7621L28.5732 49.9053C28.5066 49.8574 28.4187 49.8515 28.3462 49.8891 28.2737 49.9264 28.2276 50.0016 28.2276 50.0827L28.2276 52.7719C28.2276 52.8461 28.266 52.9152 28.3292 52.9554L29.5334 53.7251C29.6007 53.7677 29.6861 53.7712 29.756 53.7318 29.8261 53.6936 29.8696 53.6211 29.8696 53.5407ZM29.6511 56.7905 29.756 56.5984 28.6645 56.002 28.6645 53.8361 29.4327 54.3123 29.4327 56.7905 29.6511 56.7905 29.756 56.5984 29.6511 56.7905 29.8696 56.7905 29.8696 54.1902C29.8696 54.1142 29.8303 54.0451 29.7663 54.0049L28.5612 53.2575C28.4939 53.2156 28.4093 53.213 28.3403 53.2523 28.271 53.2907 28.2276 53.3633 28.2276 53.4426L28.2276 56.1318C28.2276 56.212 28.271 56.2845 28.342 56.3238L29.5461 56.9816C29.6144 57.0192 29.6964 57.0175 29.7628 56.9784 29.8285 56.939 29.8696 56.8683 29.8696 56.7905ZM29.6511 63.291 29.7261 63.0863 28.6645 62.6978 28.6645 60.4978 29.4327 60.834 29.4327 63.291 29.6511 63.291 29.7261 63.0863 29.6511 63.291 29.8696 63.291 29.8696 60.6916C29.8696 60.6037 29.8183 60.526 29.739 60.491L28.5339 59.9636C28.4666 59.9337 28.3888 59.9404 28.3265 59.9806 28.2651 60.0215 28.2276 60.0899 28.2276 60.1642L28.2276 62.8516C28.2276 62.9429 28.2857 63.0249 28.3718 63.0563L29.576 63.4959C29.6435 63.5206 29.7176 63.5112 29.7765 63.4703 29.8347 63.4293 29.8696 63.3626 29.8696 63.291ZM29.6511 69.7915 29.6902 69.5765 28.6645 69.3895 28.6645 67.1647 29.4327 67.3609 29.4327 69.7915 29.6511 69.7915 29.6902 69.5765 29.6511 69.7915 29.8696 69.7915 29.8696 67.1912C29.8696 67.0913 29.8012 67.0042 29.7049 66.9795L28.5007 66.6714C28.4349 66.6553 28.365 66.6697 28.3121 66.7108 28.2592 66.7516 28.2276 66.8165 28.2276 66.884L28.2276 69.5712C28.2276 69.6772 28.3036 69.7676 28.4067 69.7864L29.6118 70.0067C29.6758 70.0176 29.7416 70.0005 29.791 69.9597 29.8406 69.9177 29.8696 69.8564 29.8696 69.7915ZM29.6511 73.0413 29.6708 72.8245 28.6645 72.7323 28.6645 70.5006 29.4327 70.6269 29.4327 73.0413 29.6511 73.0413 29.6708 72.8245 29.6511 73.0413 29.8696 73.0413 29.8696 70.4419C29.8696 70.3352 29.7918 70.2439 29.687 70.226L28.4819 70.0279C28.4187 70.0176 28.3538 70.0355 28.3053 70.0766 28.2566 70.1183 28.2276 70.179 28.2276 70.2439L28.2276 72.932C28.2276 73.0448 28.3147 73.1394 28.4264 73.1496L29.6315 73.2589C29.6929 73.265 29.7527 73.2445 29.7988 73.2025 29.8441 73.1617 29.8696 73.1035 29.8696 73.0413ZM28.0901 49.1517 28.219 48.975 27.1029 48.1607 27.1029 45.9257 27.8717 46.5418 27.8717 49.1517 28.0901 49.1517 28.219 48.975 28.0901 49.1517 28.3086 49.1517 28.3086 46.4378C28.3086 46.3712 28.2789 46.3081 28.2267 46.267L27.0218 45.2994C26.956 45.2465 26.8665 45.2362 26.7904 45.2729 26.7144 45.3096 26.6659 45.3855 26.6659 45.47L26.6659 48.2717C26.6659 48.3425 26.6991 48.4074 26.7564 48.4485L27.9612 49.3274C28.0279 49.3761 28.1157 49.3829 28.1891 49.3462 28.2625 49.3086 28.3086 49.2337 28.3086 49.1517ZM28.0901 55.9362 28.1952 55.7451 27.1029 55.1478 27.1029 52.8673 27.8717 53.3436 27.8717 55.9362 28.0901 55.9362 28.1952 55.7451 28.0901 55.9362 28.3086 55.9362 28.3086 53.2224C28.3086 53.1465 28.2695 53.0764 28.2055 53.0364L26.9995 52.2888C26.932 52.2471 26.8477 52.2453 26.7784 52.2836 26.7094 52.322 26.6668 52.3954 26.6668 52.475L26.6668 55.2775C26.6668 55.3577 26.7094 55.4303 26.7802 55.4696L27.9853 56.1283C28.0526 56.165 28.1345 56.1641 28.202 56.125 28.2678 56.0857 28.3086 56.014 28.3086 55.9362ZM28.0901 66.1141 28.1483 65.9033 27.1029 65.6175 27.1029 63.2894 27.8717 63.5555 27.8717 66.1141 28.0901 66.1141 28.1483 65.9033 28.0901 66.1141 28.3086 66.1141 28.3086 63.4002C28.3086 63.3074 28.2498 63.2246 28.1618 63.1938L26.956 62.7765C26.8894 62.7524 26.8151 62.7636 26.7581 62.8046 26.7 62.8455 26.6668 62.9113 26.6668 62.9821L26.6668 65.7838C26.6668 65.8829 26.7323 65.969 26.8271 65.9946L28.0322 66.3249C28.0978 66.3428 28.1688 66.3293 28.2225 66.2874 28.2772 66.2465 28.3086 66.1816 28.3086 66.1141ZM28.0901 69.5066 28.1295 69.2923 27.1029 69.1046 27.1029 66.7662 27.8717 66.9624 27.8717 69.5066 28.0901 69.5066 28.1295 69.2923 28.0901 69.5066 28.3086 69.5066 28.3086 66.7927C28.3086 66.6928 28.2404 66.6057 28.1439 66.581L26.939 66.2738C26.8732 66.2568 26.8033 66.2721 26.7502 66.3129 26.6974 66.354 26.6659 66.418 26.6659 66.4853L26.6659 69.2872C26.6659 69.3921 26.7417 69.4825 26.8459 69.5013L28.051 69.7215C28.115 69.7336 28.1797 69.7163 28.2302 69.6746 28.2796 69.6337 28.3086 69.5712 28.3086 69.5066ZM26.5285 51.5471 26.6462 51.3638 25.5419 50.6579 25.5419 48.2855 26.31 48.8317 26.31 51.5471 26.5285 51.5471 26.6462 51.3638 26.5285 51.5471 26.747 51.5471 26.747 48.7189C26.747 48.6482 26.7129 48.5815 26.6548 48.5407L25.4505 47.6838C25.3841 47.6368 25.2961 47.6309 25.2235 47.6676 25.151 47.705 25.1049 47.7802 25.1049 47.8621L25.1049 50.7783C25.1049 50.8526 25.1434 50.9225 25.2065 50.9627L26.4107 51.7315C26.478 51.775 26.5634 51.7776 26.6334 51.7391 26.7035 51.7009 26.747 51.6275 26.747 51.5471ZM26.5285 55.082 26.6334 54.8908 25.5419 54.2935 25.5419 51.8997 26.31 52.3758 26.31 55.082 26.5285 55.082 26.6334 54.8908 26.5285 55.082 26.747 55.082 26.747 52.2547C26.747 52.1787 26.7076 52.1088 26.6436 52.0686L25.4387 51.321C25.3712 51.2792 25.2867 51.2775 25.2176 51.3159 25.1484 51.3551 25.1049 51.4278 25.1049 51.5071L25.1049 54.4231C25.1049 54.5026 25.1493 54.576 25.2194 54.6143L26.4234 55.2741C26.4909 55.3116 26.5728 55.3099 26.6395 55.2706 26.7059 55.2314 26.747 55.1598 26.747 55.082ZM26.5285 58.6169 26.6189 58.4181 25.5419 57.9274 25.5419 55.5148 26.31 55.921 26.31 58.6169 26.5285 58.6169 26.6189 58.4181 26.5285 58.6169 26.747 58.6169 26.747 55.7886C26.747 55.7084 26.7017 55.6334 26.6309 55.5959L25.4258 54.9592C25.3583 54.9234 25.2764 54.9249 25.2109 54.9651 25.1451 55.0045 25.1049 55.0752 25.1049 55.1519L25.1049 58.0672C25.1049 58.1535 25.1554 58.2311 25.2329 58.2661L26.438 58.8157C26.5053 58.8465 26.584 58.8404 26.6462 58.8004 26.7094 58.7603 26.747 58.6912 26.747 58.6169ZM26.5285 62.1516 26.6036 61.9469 25.5419 61.5596 25.5419 59.1306 26.31 59.4668 26.31 62.1516 26.5285 62.1516 26.6036 61.9469 26.5285 62.1516 26.747 62.1516 26.747 59.3235C26.747 59.2374 26.6956 59.1587 26.6163 59.1238L25.4112 58.5964C25.3439 58.5665 25.2661 58.5735 25.2039 58.6134 25.1425 58.6545 25.1049 58.7227 25.1049 58.7961L25.1049 61.7131C25.1049 61.8045 25.163 61.8864 25.2491 61.9179L26.4533 62.3574C26.5208 62.3821 26.5949 62.3719 26.6539 62.331 26.712 62.2899 26.747 62.2235 26.747 62.1516ZM26.5285 65.6874 26.5857 65.4766 25.5419 65.1908 25.5419 62.7483 26.31 63.0146 26.31 65.6874 26.5285 65.6874 26.5857 65.4766 26.5285 65.6874 26.747 65.6874 26.747 62.8593C26.747 62.7653 26.688 62.6825 26.6001 62.6519L25.395 62.2344C25.3286 62.2115 25.2552 62.2226 25.1971 62.2635 25.139 62.3046 25.1049 62.3701 25.1049 62.442L25.1049 65.3571C25.1049 65.4561 25.1715 65.5424 25.2661 65.5679L26.4704 65.8982C26.5361 65.9162 26.6069 65.9024 26.6607 65.8615 26.7144 65.8198 26.747 65.7549 26.747 65.6874ZM26.5285 72.7564 26.5481 72.5386 25.5419 72.4481 25.5419 69.9879 26.31 70.1142 26.31 72.7564 26.5285 72.7564 26.5481 72.5386 26.5285 72.7564 26.747 72.7564 26.747 69.9289C26.747 69.8223 26.6692 69.7309 26.5643 69.713L25.3592 69.5151C25.2961 69.5048 25.2312 69.5227 25.1827 69.5645 25.134 69.6055 25.1049 69.6669 25.1049 69.7309L25.1049 72.6471C25.1049 72.7605 25.1921 72.8545 25.3037 72.8647L26.5088 72.974C26.5702 72.9799 26.6301 72.9593 26.6762 72.9185 26.7214 72.8765 26.747 72.8186 26.747 72.7564ZM24.6339 42.2525 24.4154 42.2525 24.4154 74.6781C24.4154 74.7362 24.4383 74.7926 24.4794 74.8325 24.5203 74.8736 24.5758 74.8966 24.6339 74.8966L30.3415 74.8966C30.3996 74.8966 30.4543 74.8745 30.496 74.8325 30.5368 74.7917 30.56 74.7371 30.56 74.6781L30.56 45.9105C30.56 45.8353 30.5215 45.766 30.4593 45.7261L24.7516 42.0692C24.6841 42.0255 24.5998 42.0231 24.5288 42.0614 24.4589 42.0998 24.4154 42.1724 24.4154 42.2525L24.6339 42.2525 24.5161 42.4369 30.123 46.0291 30.123 74.4596 24.8523 74.4596 24.8523 42.2525 24.6339 42.2525 24.5161 42.4369 24.6339 42.2525" fill="#D4E2E5" transform="matrix(1.70175 0 0 1 871.439 484.063)"/><path d="M23.2026 46.5137 19.0824 49.3641 19.0824 47.2049 23.2026 44.0925ZM23.2026 50.2738 19.0824 52.7181 19.0824 50.5589 23.2026 47.8527ZM23.2026 54.0349 19.0824 56.071 19.0824 53.913 23.2026 51.6137ZM23.2026 57.7968 19.0824 59.4251 19.0824 57.2659 23.2026 55.3748ZM23.2026 61.5569 19.0824 62.7791 19.0824 60.6199 23.2026 59.1358ZM23.2026 65.318 19.0824 66.132 19.0824 63.9728 23.2026 62.8968ZM23.2026 69.079 19.0824 69.486 19.0824 67.3269 23.2026 66.6577ZM23.2026 72.839 19.0824 72.839 19.0824 70.6809 23.2026 70.4178ZM18.1667 45.9105 18.1667 74.6781 24.1185 74.6781 24.1185 42.2525 18.1667 45.9105" fill="#D4E2E5" transform="matrix(1.70175 0 0 1 871.439 484.063)"/><path d="M23.2026 46.5137 23.079 46.3336 19.3009 48.9477 19.3009 47.3141 22.9842 44.5312 22.9842 46.5137 23.2026 46.5137 23.079 46.3336 23.2026 46.5137 23.4211 46.5137 23.4211 44.0925C23.4211 44.0097 23.3742 43.9339 23.3007 43.8972 23.2265 43.8605 23.1378 43.8682 23.0713 43.9184L18.951 47.031C18.8963 47.0727 18.8639 47.1367 18.8639 47.2049L18.8639 49.3641C18.8639 49.446 18.9091 49.5203 18.9817 49.5579 19.0534 49.5963 19.1396 49.5902 19.207 49.5441L23.3272 46.6939C23.3862 46.6528 23.4211 46.5853 23.4211 46.5137ZM23.2026 50.2738 23.0917 50.0862 19.3009 52.334 19.3009 50.6767 22.9842 48.2582 22.9842 50.2738 23.2026 50.2738 23.0917 50.0862 23.2026 50.2738 23.4211 50.2738 23.4211 47.8527C23.4211 47.7725 23.3776 47.6991 23.3069 47.6606 23.2359 47.6231 23.1498 47.6266 23.0831 47.67L18.9629 50.3763C18.9015 50.4165 18.8639 50.4847 18.8639 50.5589L18.8639 52.7181C18.8639 52.7966 18.9057 52.8691 18.9749 52.9075 19.0431 52.9469 19.1268 52.946 19.1942 52.9058L23.3145 50.4626C23.3811 50.4224 23.4211 50.3516 23.4211 50.2738ZM23.2026 54.0349 23.1063 53.8395 19.3009 55.7195 19.3009 54.0408 22.9842 51.9858 22.9842 54.0349 23.2026 54.0349 23.1063 53.8395 23.2026 54.0349 23.4211 54.0349 23.4211 51.6137C23.4211 51.537 23.3803 51.4652 23.3136 51.4261 23.247 51.3867 23.1642 51.3859 23.0969 51.4234L18.9766 53.7218C18.9066 53.7609 18.8639 53.8334 18.8639 53.913L18.8639 56.071C18.8639 56.1471 18.904 56.217 18.9672 56.2572 19.0312 56.2965 19.1123 56.3007 19.1797 56.2675L23.2999 54.2313C23.3742 54.1946 23.4211 54.1185 23.4211 54.0349ZM23.2026 57.7968 23.1225 57.5927 19.3009 59.1033 19.3009 57.4068 22.9842 55.7154 22.9842 57.7968 23.2026 57.7968 23.1225 57.5927 23.2026 57.7968 23.4211 57.7968 23.4211 55.3748C23.4211 55.3005 23.3835 55.2314 23.3213 55.1904 23.2581 55.1504 23.1797 55.1452 23.1122 55.176L18.9919 57.0679C18.9134 57.1038 18.8639 57.1807 18.8639 57.2659L18.8639 59.4251C18.8639 59.4976 18.9006 59.5651 18.9595 59.606 19.0201 59.6462 19.096 59.6547 19.1634 59.6282L23.2828 58C23.3665 57.9665 23.4211 57.8855 23.4211 57.7968ZM23.2026 61.5569 23.1413 61.3479 19.3009 62.4863 19.3009 60.7726 22.9842 59.4465 22.9842 61.5569 23.2026 61.5569 23.1413 61.3479 23.2026 61.5569 23.4211 61.5569 23.4211 59.1358C23.4211 59.065 23.387 58.9975 23.3289 58.9564 23.271 58.9165 23.1959 58.9062 23.1292 58.93L19.009 60.4141C18.9219 60.4449 18.8639 60.5268 18.8639 60.6199L18.8639 62.7791C18.8639 62.8473 18.8972 62.913 18.9518 62.9539 19.0073 62.9949 19.079 63.0076 19.1447 62.9882L23.2649 61.766C23.358 61.7387 23.4211 61.6533 23.4211 61.5569ZM23.2026 65.318 23.1609 65.1028 19.3009 65.8657 19.3009 64.1419 22.9842 63.1793 22.9842 65.318 23.2026 65.318 23.1609 65.1028 23.2026 65.318 23.4211 65.318 23.4211 62.8968C23.4211 62.8285 23.3903 62.7645 23.3366 62.7236 23.2828 62.6816 23.2138 62.6681 23.148 62.6851L19.0278 63.7613C18.9313 63.7869 18.8639 63.873 18.8639 63.9728L18.8639 66.132C18.8639 66.1978 18.8929 66.2592 18.9441 66.3011 18.9945 66.342 19.061 66.359 19.1251 66.3463L23.2453 65.5321C23.3477 65.5116 23.4211 65.4211 23.4211 65.318ZM23.2026 69.079 23.1812 68.8612 19.3009 69.2444 19.3009 67.513 22.9842 66.9137 22.9842 69.079 23.2026 69.079 23.1812 68.8612 23.2026 69.079 23.4211 69.079 23.4211 66.6577C23.4211 66.5937 23.3929 66.5323 23.3444 66.4914 23.2957 66.4495 23.2308 66.4315 23.1677 66.4418L19.0474 67.111C18.9424 67.128 18.8639 67.2202 18.8639 67.3269L18.8639 69.486C18.8639 69.5474 18.8904 69.6064 18.9365 69.6473 18.9817 69.689 19.0431 69.7087 19.1046 69.7028L23.2249 69.2957C23.3357 69.2846 23.4211 69.1907 23.4211 69.079ZM23.2026 72.839 23.2026 72.6205 19.3009 72.6205 19.3009 70.8847 22.9842 70.6509 22.9842 72.839 23.2026 72.839 23.2026 72.6205 23.2026 72.839 23.4211 72.839 23.4211 70.4178C23.4211 70.3582 23.3964 70.2992 23.353 70.2583 23.3086 70.2173 23.2487 70.1961 23.1891 70.1994L19.0687 70.4624C18.9535 70.47 18.8639 70.5646 18.8639 70.6809L18.8639 72.839C18.8639 72.8962 18.8878 72.9526 18.9288 72.9934 18.9689 73.0345 19.0252 73.0574 19.0824 73.0574L23.2026 73.0574C23.2616 73.0574 23.3163 73.0345 23.3571 72.9934 23.3991 72.9526 23.4211 72.8971 23.4211 72.839ZM18.1667 45.9105 17.9482 45.9105 17.9482 74.6781C17.9482 74.7362 17.9712 74.7926 18.0122 74.8325 18.0532 74.8736 18.1095 74.8966 18.1667 74.8966L24.1185 74.8966C24.1773 74.8966 24.2319 74.8745 24.273 74.8325 24.3147 74.7917 24.337 74.7371 24.337 74.6781L24.337 42.2525C24.337 42.1732 24.295 42.1007 24.2251 42.0622 24.1559 42.024 24.0724 42.0247 24.004 42.0666L18.0523 45.7234C17.9874 45.7636 17.9482 45.8335 17.9482 45.9105L18.1667 45.9105 18.281 46.0955 23.9 42.6436 23.9 74.4596 18.3851 74.4596 18.3851 45.9105 18.1667 45.9105 18.281 46.0955 18.1667 45.9105" fill="#D4E2E5" transform="matrix(1.70175 0 0 1 871.439 484.063)"/></g></svg>